<?xml version="1.0" encoding="utf-8" standalone="no"?>
<!DOCTYPE svg PUBLIC "-//W3C//DTD SVG 1.1//EN"
  "http://www.w3.org/Graphics/SVG/1.1/DTD/svg11.dtd">
<svg xmlns:xlink="http://www.w3.org/1999/xlink" width="720pt" height="576pt" viewBox="0 0 720 576" xmlns="http://www.w3.org/2000/svg" version="1.1">
 <metadata>
  <rdf:RDF xmlns:dc="http://purl.org/dc/elements/1.1/" xmlns:cc="http://creativecommons.org/ns#" xmlns:rdf="http://www.w3.org/1999/02/22-rdf-syntax-ns#">
   <cc:Work>
    <dc:type rdf:resource="http://purl.org/dc/dcmitype/StillImage"/>
    <dc:date>2026-04-21T16:48:33.278398</dc:date>
    <dc:format>image/svg+xml</dc:format>
    <dc:creator>
     <cc:Agent>
      <dc:title>Matplotlib v3.10.8, https://matplotlib.org/</dc:title>
     </cc:Agent>
    </dc:creator>
   </cc:Work>
  </rdf:RDF>
 </metadata>
 <defs>
  <style type="text/css">*{stroke-linejoin: round; stroke-linecap: butt}</style>
 </defs>
 <g id="figure_1">
  <g id="patch_1">
   <path d="M 0 576 
L 720 576 
L 720 0 
L 0 0 
z
" style="fill: #ffffff"/>
  </g>
  <g id="axes_1">
   <g id="patch_2">
    <path d="M 57.35 523.24 
L 709.2 523.24 
L 709.2 10.8 
L 57.35 10.8 
z
" style="fill: #ffffff"/>
   </g>
   <g id="matplotlib.axis_1">
    <g id="xtick_1">
     <g id="line2d_1">
      <defs>
       <path id="m4779fb5af8" d="M 0 0 
L 0 3.5 
" style="stroke: #000000; stroke-width: 0.8"/>
      </defs>
      <g>
       <use xlink:href="#m4779fb5af8" x="110.191631" y="523.24" style="stroke: #000000; stroke-width: 0.8"/>
      </g>
     </g>
     <g id="text_1">
      <!-- −5 -->
      <g transform="translate(102.820538 537.838438) scale(0.1 -0.1)">
       <defs>
        <path id="DejaVuSans-2212" d="M 678 2272 
L 4684 2272 
L 4684 1741 
L 678 1741 
L 678 2272 
z
" transform="scale(0.015625)"/>
        <path id="DejaVuSans-35" d="M 691 4666 
L 3169 4666 
L 3169 4134 
L 1269 4134 
L 1269 2991 
Q 1406 3038 1543 3061 
Q 1681 3084 1819 3084 
Q 2600 3084 3056 2656 
Q 3513 2228 3513 1497 
Q 3513 744 3044 326 
Q 2575 -91 1722 -91 
Q 1428 -91 1123 -41 
Q 819 9 494 109 
L 494 744 
Q 775 591 1075 516 
Q 1375 441 1709 441 
Q 2250 441 2565 725 
Q 2881 1009 2881 1497 
Q 2881 1984 2565 2268 
Q 2250 2553 1709 2553 
Q 1456 2553 1204 2497 
Q 953 2441 691 2322 
L 691 4666 
z
" transform="scale(0.015625)"/>
       </defs>
       <use xlink:href="#DejaVuSans-2212"/>
       <use xlink:href="#DejaVuSans-35" transform="translate(83.789062 0)"/>
      </g>
     </g>
    </g>
    <g id="xtick_2">
     <g id="line2d_2">
      <g>
       <use xlink:href="#m4779fb5af8" x="246.733313" y="523.24" style="stroke: #000000; stroke-width: 0.8"/>
      </g>
     </g>
     <g id="text_2">
      <!-- 0 -->
      <g transform="translate(243.552063 537.838438) scale(0.1 -0.1)">
       <defs>
        <path id="DejaVuSans-30" d="M 2034 4250 
Q 1547 4250 1301 3770 
Q 1056 3291 1056 2328 
Q 1056 1369 1301 889 
Q 1547 409 2034 409 
Q 2525 409 2770 889 
Q 3016 1369 3016 2328 
Q 3016 3291 2770 3770 
Q 2525 4250 2034 4250 
z
M 2034 4750 
Q 2819 4750 3233 4129 
Q 3647 3509 3647 2328 
Q 3647 1150 3233 529 
Q 2819 -91 2034 -91 
Q 1250 -91 836 529 
Q 422 1150 422 2328 
Q 422 3509 836 4129 
Q 1250 4750 2034 4750 
z
" transform="scale(0.015625)"/>
       </defs>
       <use xlink:href="#DejaVuSans-30"/>
      </g>
     </g>
    </g>
    <g id="xtick_3">
     <g id="line2d_3">
      <g>
       <use xlink:href="#m4779fb5af8" x="383.274995" y="523.24" style="stroke: #000000; stroke-width: 0.8"/>
      </g>
     </g>
     <g id="text_3">
      <!-- 5 -->
      <g transform="translate(380.093745 537.838438) scale(0.1 -0.1)">
       <use xlink:href="#DejaVuSans-35"/>
      </g>
     </g>
    </g>
    <g id="xtick_4">
     <g id="line2d_4">
      <g>
       <use xlink:href="#m4779fb5af8" x="519.816677" y="523.24" style="stroke: #000000; stroke-width: 0.8"/>
      </g>
     </g>
     <g id="text_4">
      <!-- 10 -->
      <g transform="translate(513.454177 537.838438) scale(0.1 -0.1)">
       <defs>
        <path id="DejaVuSans-31" d="M 794 531 
L 1825 531 
L 1825 4091 
L 703 3866 
L 703 4441 
L 1819 4666 
L 2450 4666 
L 2450 531 
L 3481 531 
L 3481 0 
L 794 0 
L 794 531 
z
" transform="scale(0.015625)"/>
       </defs>
       <use xlink:href="#DejaVuSans-31"/>
       <use xlink:href="#DejaVuSans-30" transform="translate(63.623047 0)"/>
      </g>
     </g>
    </g>
    <g id="xtick_5">
     <g id="line2d_5">
      <g>
       <use xlink:href="#m4779fb5af8" x="656.358358" y="523.24" style="stroke: #000000; stroke-width: 0.8"/>
      </g>
     </g>
     <g id="text_5">
      <!-- 15 -->
      <g transform="translate(649.995858 537.838438) scale(0.1 -0.1)">
       <use xlink:href="#DejaVuSans-31"/>
       <use xlink:href="#DejaVuSans-35" transform="translate(63.623047 0)"/>
      </g>
     </g>
    </g>
    <g id="text_6">
     <!-- True Value -->
     <g transform="translate(326.2125 560.634688) scale(0.22 -0.22)">
      <defs>
       <path id="DejaVuSans-54" d="M -19 4666 
L 3928 4666 
L 3928 4134 
L 2272 4134 
L 2272 0 
L 1638 0 
L 1638 4134 
L -19 4134 
L -19 4666 
z
" transform="scale(0.015625)"/>
       <path id="DejaVuSans-72" d="M 2631 2963 
Q 2534 3019 2420 3045 
Q 2306 3072 2169 3072 
Q 1681 3072 1420 2755 
Q 1159 2438 1159 1844 
L 1159 0 
L 581 0 
L 581 3500 
L 1159 3500 
L 1159 2956 
Q 1341 3275 1631 3429 
Q 1922 3584 2338 3584 
Q 2397 3584 2469 3576 
Q 2541 3569 2628 3553 
L 2631 2963 
z
" transform="scale(0.015625)"/>
       <path id="DejaVuSans-75" d="M 544 1381 
L 544 3500 
L 1119 3500 
L 1119 1403 
Q 1119 906 1312 657 
Q 1506 409 1894 409 
Q 2359 409 2629 706 
Q 2900 1003 2900 1516 
L 2900 3500 
L 3475 3500 
L 3475 0 
L 2900 0 
L 2900 538 
Q 2691 219 2414 64 
Q 2138 -91 1772 -91 
Q 1169 -91 856 284 
Q 544 659 544 1381 
z
M 1991 3584 
L 1991 3584 
z
" transform="scale(0.015625)"/>
       <path id="DejaVuSans-65" d="M 3597 1894 
L 3597 1613 
L 953 1613 
Q 991 1019 1311 708 
Q 1631 397 2203 397 
Q 2534 397 2845 478 
Q 3156 559 3463 722 
L 3463 178 
Q 3153 47 2828 -22 
Q 2503 -91 2169 -91 
Q 1331 -91 842 396 
Q 353 884 353 1716 
Q 353 2575 817 3079 
Q 1281 3584 2069 3584 
Q 2775 3584 3186 3129 
Q 3597 2675 3597 1894 
z
M 3022 2063 
Q 3016 2534 2758 2815 
Q 2500 3097 2075 3097 
Q 1594 3097 1305 2825 
Q 1016 2553 972 2059 
L 3022 2063 
z
" transform="scale(0.015625)"/>
       <path id="DejaVuSans-20" transform="scale(0.015625)"/>
       <path id="DejaVuSans-56" d="M 1831 0 
L 50 4666 
L 709 4666 
L 2188 738 
L 3669 4666 
L 4325 4666 
L 2547 0 
L 1831 0 
z
" transform="scale(0.015625)"/>
       <path id="DejaVuSans-61" d="M 2194 1759 
Q 1497 1759 1228 1600 
Q 959 1441 959 1056 
Q 959 750 1161 570 
Q 1363 391 1709 391 
Q 2188 391 2477 730 
Q 2766 1069 2766 1631 
L 2766 1759 
L 2194 1759 
z
M 3341 1997 
L 3341 0 
L 2766 0 
L 2766 531 
Q 2569 213 2275 61 
Q 1981 -91 1556 -91 
Q 1019 -91 701 211 
Q 384 513 384 1019 
Q 384 1609 779 1909 
Q 1175 2209 1959 2209 
L 2766 2209 
L 2766 2266 
Q 2766 2663 2505 2880 
Q 2244 3097 1772 3097 
Q 1472 3097 1187 3025 
Q 903 2953 641 2809 
L 641 3341 
Q 956 3463 1253 3523 
Q 1550 3584 1831 3584 
Q 2591 3584 2966 3190 
Q 3341 2797 3341 1997 
z
" transform="scale(0.015625)"/>
       <path id="DejaVuSans-6c" d="M 603 4863 
L 1178 4863 
L 1178 0 
L 603 0 
L 603 4863 
z
" transform="scale(0.015625)"/>
      </defs>
      <use xlink:href="#DejaVuSans-54"/>
      <use xlink:href="#DejaVuSans-72" transform="translate(46.333984 0)"/>
      <use xlink:href="#DejaVuSans-75" transform="translate(87.447266 0)"/>
      <use xlink:href="#DejaVuSans-65" transform="translate(150.826172 0)"/>
      <use xlink:href="#DejaVuSans-20" transform="translate(212.349609 0)"/>
      <use xlink:href="#DejaVuSans-56" transform="translate(244.136719 0)"/>
      <use xlink:href="#DejaVuSans-61" transform="translate(304.794922 0)"/>
      <use xlink:href="#DejaVuSans-6c" transform="translate(366.074219 0)"/>
      <use xlink:href="#DejaVuSans-75" transform="translate(393.857422 0)"/>
      <use xlink:href="#DejaVuSans-65" transform="translate(457.236328 0)"/>
     </g>
    </g>
   </g>
   <g id="matplotlib.axis_2">
    <g id="ytick_1">
     <g id="line2d_6">
      <defs>
       <path id="m1557593667" d="M 0 0 
L -3.5 0 
" style="stroke: #000000; stroke-width: 0.8"/>
      </defs>
      <g>
       <use xlink:href="#m1557593667" x="57.35" y="481.699516" style="stroke: #000000; stroke-width: 0.8"/>
      </g>
     </g>
     <g id="text_7">
      <!-- −5 -->
      <g transform="translate(35.607813 485.498735) scale(0.1 -0.1)">
       <use xlink:href="#DejaVuSans-2212"/>
       <use xlink:href="#DejaVuSans-35" transform="translate(83.789062 0)"/>
      </g>
     </g>
    </g>
    <g id="ytick_2">
     <g id="line2d_7">
      <g>
       <use xlink:href="#m1557593667" x="57.35" y="374.359761" style="stroke: #000000; stroke-width: 0.8"/>
      </g>
     </g>
     <g id="text_8">
      <!-- 0 -->
      <g transform="translate(43.9875 378.158979) scale(0.1 -0.1)">
       <use xlink:href="#DejaVuSans-30"/>
      </g>
     </g>
    </g>
    <g id="ytick_3">
     <g id="line2d_8">
      <g>
       <use xlink:href="#m1557593667" x="57.35" y="267.020005" style="stroke: #000000; stroke-width: 0.8"/>
      </g>
     </g>
     <g id="text_9">
      <!-- 5 -->
      <g transform="translate(43.9875 270.819224) scale(0.1 -0.1)">
       <use xlink:href="#DejaVuSans-35"/>
      </g>
     </g>
    </g>
    <g id="ytick_4">
     <g id="line2d_9">
      <g>
       <use xlink:href="#m1557593667" x="57.35" y="159.68025" style="stroke: #000000; stroke-width: 0.8"/>
      </g>
     </g>
     <g id="text_10">
      <!-- 10 -->
      <g transform="translate(37.625 163.479468) scale(0.1 -0.1)">
       <use xlink:href="#DejaVuSans-31"/>
       <use xlink:href="#DejaVuSans-30" transform="translate(63.623047 0)"/>
      </g>
     </g>
    </g>
    <g id="ytick_5">
     <g id="line2d_10">
      <g>
       <use xlink:href="#m1557593667" x="57.35" y="52.340494" style="stroke: #000000; stroke-width: 0.8"/>
      </g>
     </g>
     <g id="text_11">
      <!-- 15 -->
      <g transform="translate(37.625 56.139713) scale(0.1 -0.1)">
       <use xlink:href="#DejaVuSans-31"/>
       <use xlink:href="#DejaVuSans-35" transform="translate(63.623047 0)"/>
      </g>
     </g>
    </g>
    <g id="text_12">
     <!-- Predicted Value -->
     <g transform="translate(27.0325 352.359375) rotate(-90) scale(0.22 -0.22)">
      <defs>
       <path id="DejaVuSans-50" d="M 1259 4147 
L 1259 2394 
L 2053 2394 
Q 2494 2394 2734 2622 
Q 2975 2850 2975 3272 
Q 2975 3691 2734 3919 
Q 2494 4147 2053 4147 
L 1259 4147 
z
M 628 4666 
L 2053 4666 
Q 2838 4666 3239 4311 
Q 3641 3956 3641 3272 
Q 3641 2581 3239 2228 
Q 2838 1875 2053 1875 
L 1259 1875 
L 1259 0 
L 628 0 
L 628 4666 
z
" transform="scale(0.015625)"/>
       <path id="DejaVuSans-64" d="M 2906 2969 
L 2906 4863 
L 3481 4863 
L 3481 0 
L 2906 0 
L 2906 525 
Q 2725 213 2448 61 
Q 2172 -91 1784 -91 
Q 1150 -91 751 415 
Q 353 922 353 1747 
Q 353 2572 751 3078 
Q 1150 3584 1784 3584 
Q 2172 3584 2448 3432 
Q 2725 3281 2906 2969 
z
M 947 1747 
Q 947 1113 1208 752 
Q 1469 391 1925 391 
Q 2381 391 2643 752 
Q 2906 1113 2906 1747 
Q 2906 2381 2643 2742 
Q 2381 3103 1925 3103 
Q 1469 3103 1208 2742 
Q 947 2381 947 1747 
z
" transform="scale(0.015625)"/>
       <path id="DejaVuSans-69" d="M 603 3500 
L 1178 3500 
L 1178 0 
L 603 0 
L 603 3500 
z
M 603 4863 
L 1178 4863 
L 1178 4134 
L 603 4134 
L 603 4863 
z
" transform="scale(0.015625)"/>
       <path id="DejaVuSans-63" d="M 3122 3366 
L 3122 2828 
Q 2878 2963 2633 3030 
Q 2388 3097 2138 3097 
Q 1578 3097 1268 2742 
Q 959 2388 959 1747 
Q 959 1106 1268 751 
Q 1578 397 2138 397 
Q 2388 397 2633 464 
Q 2878 531 3122 666 
L 3122 134 
Q 2881 22 2623 -34 
Q 2366 -91 2075 -91 
Q 1284 -91 818 406 
Q 353 903 353 1747 
Q 353 2603 823 3093 
Q 1294 3584 2113 3584 
Q 2378 3584 2631 3529 
Q 2884 3475 3122 3366 
z
" transform="scale(0.015625)"/>
       <path id="DejaVuSans-74" d="M 1172 4494 
L 1172 3500 
L 2356 3500 
L 2356 3053 
L 1172 3053 
L 1172 1153 
Q 1172 725 1289 603 
Q 1406 481 1766 481 
L 2356 481 
L 2356 0 
L 1766 0 
Q 1100 0 847 248 
Q 594 497 594 1153 
L 594 3053 
L 172 3053 
L 172 3500 
L 594 3500 
L 594 4494 
L 1172 4494 
z
" transform="scale(0.015625)"/>
      </defs>
      <use xlink:href="#DejaVuSans-50"/>
      <use xlink:href="#DejaVuSans-72" transform="translate(58.552734 0)"/>
      <use xlink:href="#DejaVuSans-65" transform="translate(97.416016 0)"/>
      <use xlink:href="#DejaVuSans-64" transform="translate(158.939453 0)"/>
      <use xlink:href="#DejaVuSans-69" transform="translate(222.416016 0)"/>
      <use xlink:href="#DejaVuSans-63" transform="translate(250.199219 0)"/>
      <use xlink:href="#DejaVuSans-74" transform="translate(305.179688 0)"/>
      <use xlink:href="#DejaVuSans-65" transform="translate(344.388672 0)"/>
      <use xlink:href="#DejaVuSans-64" transform="translate(405.912109 0)"/>
      <use xlink:href="#DejaVuSans-20" transform="translate(469.388672 0)"/>
      <use xlink:href="#DejaVuSans-56" transform="translate(501.175781 0)"/>
      <use xlink:href="#DejaVuSans-61" transform="translate(561.833984 0)"/>
      <use xlink:href="#DejaVuSans-6c" transform="translate(623.113281 0)"/>
      <use xlink:href="#DejaVuSans-75" transform="translate(650.896484 0)"/>
      <use xlink:href="#DejaVuSans-65" transform="translate(714.275391 0)"/>
     </g>
    </g>
   </g>
   <g id="line2d_11">
    <path d="M 86.979545 392.556415 
L 92.965312 390.901623 
L 98.951079 389.246832 
L 104.936845 387.592041 
L 110.922612 385.937249 
L 116.908379 384.282458 
L 122.894145 382.627667 
L 128.879912 380.972875 
L 134.865679 379.318084 
L 140.851445 377.663293 
L 146.837212 376.008501 
L 152.822979 374.35371 
L 158.808745 372.698918 
L 164.794512 371.044127 
L 170.780279 369.389336 
L 176.766045 367.734544 
L 182.751812 366.079753 
L 188.737579 364.424962 
L 194.723345 362.77017 
L 200.709112 361.115379 
L 206.694879 359.460588 
L 212.680645 357.805796 
L 218.666412 356.151005 
L 224.652178 354.496213 
L 230.637945 352.841422 
L 236.623712 351.186631 
L 242.609478 349.531839 
L 248.595245 347.877048 
L 254.581012 346.222257 
L 260.566778 344.567465 
L 266.552545 342.912674 
L 272.538312 341.257883 
L 278.524078 339.603091 
L 284.509845 337.9483 
L 290.495612 336.293509 
L 296.481378 334.638717 
L 302.467145 332.983926 
L 308.452912 331.329134 
L 314.438678 329.674343 
L 320.424445 328.019552 
L 326.410212 326.36476 
L 332.395978 324.709969 
L 338.381745 323.055178 
L 344.367512 321.400386 
L 350.353278 319.745595 
L 356.339045 318.090804 
L 362.324812 316.436012 
L 368.310578 314.781221 
L 374.296345 313.126429 
L 380.282111 311.471638 
L 386.267878 309.816847 
L 392.253645 308.162055 
L 398.239411 306.507264 
L 404.225178 304.852473 
L 410.210945 303.197681 
L 416.196711 301.54289 
L 422.182478 299.888099 
L 428.168245 298.233307 
L 434.154011 296.578516 
L 440.139778 294.923725 
L 446.125545 293.268933 
L 452.111311 291.614142 
L 458.097078 289.95935 
L 464.082845 288.304559 
L 470.068611 286.649768 
L 476.054378 284.994976 
L 482.040145 283.340185 
L 488.025911 281.685394 
L 494.011678 280.030602 
L 499.997445 278.375811 
L 505.983211 276.72102 
L 511.968978 275.066228 
L 517.954744 273.411437 
L 523.940511 271.756645 
L 529.926278 270.101854 
L 535.912044 268.447063 
L 541.897811 266.792271 
L 547.883578 265.13748 
L 553.869344 263.482689 
L 559.855111 261.827897 
L 565.840878 260.173106 
L 571.826644 258.518315 
L 577.812411 256.863523 
L 583.798178 255.208732 
L 589.783944 253.553941 
L 595.769711 251.899149 
L 601.755478 250.244358 
L 607.741244 248.589566 
L 613.727011 246.934775 
L 619.712778 245.279984 
L 625.698544 243.625192 
L 631.684311 241.970401 
L 637.670078 240.31561 
L 643.655844 238.660818 
L 649.641611 237.006027 
L 655.627378 235.351236 
L 661.613144 233.696444 
L 667.598911 232.041653 
L 673.584677 230.386861 
L 679.570444 228.73207 
" clip-path="url(#pc26019cb67)" style="fill: none; stroke: #1f77b4; stroke-width: 1.5; stroke-linecap: square"/>
   </g>
   <g id="line2d_12">
    <path d="M 86.979548 386.132897 
L 92.965318 384.532818 
L 98.951087 382.93274 
L 104.936844 381.332665 
L 110.922614 379.732586 
L 116.908383 378.132507 
L 122.894153 376.532429 
L 128.879909 374.932353 
L 134.865679 373.332275 
L 140.851449 371.732196 
L 146.837218 370.132118 
L 152.822981 368.532041 
L 158.808751 366.931962 
L 164.794514 365.331885 
L 170.780284 363.731806 
L 176.766047 362.13173 
L 182.751816 360.531651 
L 188.737586 358.931572 
L 194.723349 357.331495 
L 200.709119 355.731417 
L 206.694888 354.131338 
L 212.680645 352.531263 
L 218.666415 350.931184 
L 224.652184 349.331106 
L 230.637954 347.731027 
L 236.623724 346.130948 
L 242.60948 344.530873 
L 248.59525 342.930795 
L 254.581019 341.330716 
L 260.566789 339.730637 
L 266.552546 338.130562 
L 272.538315 336.530483 
L 278.524085 334.930405 
L 284.509855 333.330326 
L 290.495624 331.730248 
L 296.481381 330.130172 
L 302.46715 328.530094 
L 308.452907 326.930019 
L 314.43869 325.329936 
L 320.424446 323.729861 
L 326.410229 322.129779 
L 332.395986 320.529704 
L 338.381742 318.929629 
L 344.367525 317.329547 
L 350.353281 315.729472 
L 356.339064 314.129389 
L 362.324821 312.529314 
L 368.310577 310.929239 
L 374.29636 309.329157 
L 380.282116 307.729082 
L 386.267899 306.129 
L 392.253656 304.528924 
L 398.239412 302.928849 
L 404.225195 301.328767 
L 410.210952 299.728692 
L 416.196708 298.128617 
L 422.182491 296.528535 
L 428.168247 294.92846 
L 434.15403 293.328377 
L 440.139787 291.728302 
L 446.125543 290.128227 
L 452.111326 288.528145 
L 458.097083 286.92807 
L 464.082865 285.327988 
L 470.068635 283.727909 
L 476.054365 282.127841 
L 482.040148 280.527759 
L 488.025931 278.927677 
L 494.011713 277.327594 
L 499.997444 275.727526 
L 505.983227 274.127444 
L 511.969009 272.527362 
L 517.95474 270.927294 
L 523.940522 269.327212 
L 529.926253 267.727144 
L 535.912036 266.127061 
L 541.897818 264.526979 
L 547.883601 262.926897 
L 553.869331 261.326829 
L 559.855114 259.726747 
L 565.840897 258.126665 
L 571.826627 256.526596 
L 577.81241 254.926514 
L 583.798193 253.326432 
L 589.783923 251.726364 
L 595.769706 250.126282 
L 601.755488 248.5262 
L 607.741219 246.926132 
L 613.727002 245.326049 
L 619.712784 243.725967 
L 625.698567 242.125885 
L 631.684298 240.525817 
L 637.67008 238.925735 
L 643.655863 237.325653 
L 649.641593 235.725585 
L 655.627376 234.125502 
L 661.613159 232.52542 
L 667.598889 230.925352 
L 673.584672 229.32527 
L 679.570455 227.725188 
" clip-path="url(#pc26019cb67)" style="fill: none; stroke: #ff7f0e; stroke-width: 1.5; stroke-linecap: square"/>
   </g>
   <g id="line2d_13">
    <path d="M 86.979548 499.947273 
L 679.570455 34.092727 
" clip-path="url(#pc26019cb67)" style="fill: none; stroke-dasharray: 11.1,4.8; stroke-dashoffset: 0; stroke: #ff0000; stroke-width: 3"/>
   </g>
   <g id="patch_3">
    <path d="M 57.35 523.24 
L 57.35 10.8 
" style="fill: none; stroke: #000000; stroke-width: 0.8; stroke-linejoin: miter; stroke-linecap: square"/>
   </g>
   <g id="patch_4">
    <path d="M 709.2 523.24 
L 709.2 10.8 
" style="fill: none; stroke: #000000; stroke-width: 0.8; stroke-linejoin: miter; stroke-linecap: square"/>
   </g>
   <g id="patch_5">
    <path d="M 57.35 523.24 
L 709.2 523.24 
" style="fill: none; stroke: #000000; stroke-width: 0.8; stroke-linejoin: miter; stroke-linecap: square"/>
   </g>
   <g id="patch_6">
    <path d="M 57.35 10.8 
L 709.2 10.8 
" style="fill: none; stroke: #000000; stroke-width: 0.8; stroke-linejoin: miter; stroke-linecap: square"/>
   </g>
   <g id="legend_1">
    <g id="patch_7">
     <path d="M 69.95 104.461875 
L 527.403125 104.461875 
Q 531.003125 104.461875 531.003125 100.861875 
L 531.003125 23.4 
Q 531.003125 19.8 527.403125 19.8 
L 69.95 19.8 
Q 66.35 19.8 66.35 23.4 
L 66.35 100.861875 
Q 66.35 104.461875 69.95 104.461875 
z
" style="fill: #ffffff; opacity: 0.8; stroke: #cccccc; stroke-linejoin: miter"/>
    </g>
    <g id="line2d_14">
     <path d="M 73.55 34.377188 
L 91.55 34.377188 
L 109.55 34.377188 
" style="fill: none; stroke: #1f77b4; stroke-width: 1.5; stroke-linecap: square"/>
    </g>
    <g id="text_13">
     <!-- Fit y = 0.35x + 1.21 (leave-one-out) -->
     <g transform="translate(123.95 40.677188) scale(0.18 -0.18)">
      <defs>
       <path id="DejaVuSans-46" d="M 628 4666 
L 3309 4666 
L 3309 4134 
L 1259 4134 
L 1259 2759 
L 3109 2759 
L 3109 2228 
L 1259 2228 
L 1259 0 
L 628 0 
L 628 4666 
z
" transform="scale(0.015625)"/>
       <path id="DejaVuSans-79" d="M 2059 -325 
Q 1816 -950 1584 -1140 
Q 1353 -1331 966 -1331 
L 506 -1331 
L 506 -850 
L 844 -850 
Q 1081 -850 1212 -737 
Q 1344 -625 1503 -206 
L 1606 56 
L 191 3500 
L 800 3500 
L 1894 763 
L 2988 3500 
L 3597 3500 
L 2059 -325 
z
" transform="scale(0.015625)"/>
       <path id="DejaVuSans-3d" d="M 678 2906 
L 4684 2906 
L 4684 2381 
L 678 2381 
L 678 2906 
z
M 678 1631 
L 4684 1631 
L 4684 1100 
L 678 1100 
L 678 1631 
z
" transform="scale(0.015625)"/>
       <path id="DejaVuSans-2e" d="M 684 794 
L 1344 794 
L 1344 0 
L 684 0 
L 684 794 
z
" transform="scale(0.015625)"/>
       <path id="DejaVuSans-33" d="M 2597 2516 
Q 3050 2419 3304 2112 
Q 3559 1806 3559 1356 
Q 3559 666 3084 287 
Q 2609 -91 1734 -91 
Q 1441 -91 1130 -33 
Q 819 25 488 141 
L 488 750 
Q 750 597 1062 519 
Q 1375 441 1716 441 
Q 2309 441 2620 675 
Q 2931 909 2931 1356 
Q 2931 1769 2642 2001 
Q 2353 2234 1838 2234 
L 1294 2234 
L 1294 2753 
L 1863 2753 
Q 2328 2753 2575 2939 
Q 2822 3125 2822 3475 
Q 2822 3834 2567 4026 
Q 2313 4219 1838 4219 
Q 1578 4219 1281 4162 
Q 984 4106 628 3988 
L 628 4550 
Q 988 4650 1302 4700 
Q 1616 4750 1894 4750 
Q 2613 4750 3031 4423 
Q 3450 4097 3450 3541 
Q 3450 3153 3228 2886 
Q 3006 2619 2597 2516 
z
" transform="scale(0.015625)"/>
       <path id="DejaVuSans-78" d="M 3513 3500 
L 2247 1797 
L 3578 0 
L 2900 0 
L 1881 1375 
L 863 0 
L 184 0 
L 1544 1831 
L 300 3500 
L 978 3500 
L 1906 2253 
L 2834 3500 
L 3513 3500 
z
" transform="scale(0.015625)"/>
       <path id="DejaVuSans-2b" d="M 2944 4013 
L 2944 2272 
L 4684 2272 
L 4684 1741 
L 2944 1741 
L 2944 0 
L 2419 0 
L 2419 1741 
L 678 1741 
L 678 2272 
L 2419 2272 
L 2419 4013 
L 2944 4013 
z
" transform="scale(0.015625)"/>
       <path id="DejaVuSans-32" d="M 1228 531 
L 3431 531 
L 3431 0 
L 469 0 
L 469 531 
Q 828 903 1448 1529 
Q 2069 2156 2228 2338 
Q 2531 2678 2651 2914 
Q 2772 3150 2772 3378 
Q 2772 3750 2511 3984 
Q 2250 4219 1831 4219 
Q 1534 4219 1204 4116 
Q 875 4013 500 3803 
L 500 4441 
Q 881 4594 1212 4672 
Q 1544 4750 1819 4750 
Q 2544 4750 2975 4387 
Q 3406 4025 3406 3419 
Q 3406 3131 3298 2873 
Q 3191 2616 2906 2266 
Q 2828 2175 2409 1742 
Q 1991 1309 1228 531 
z
" transform="scale(0.015625)"/>
       <path id="DejaVuSans-28" d="M 1984 4856 
Q 1566 4138 1362 3434 
Q 1159 2731 1159 2009 
Q 1159 1288 1364 580 
Q 1569 -128 1984 -844 
L 1484 -844 
Q 1016 -109 783 600 
Q 550 1309 550 2009 
Q 550 2706 781 3412 
Q 1013 4119 1484 4856 
L 1984 4856 
z
" transform="scale(0.015625)"/>
       <path id="DejaVuSans-76" d="M 191 3500 
L 800 3500 
L 1894 563 
L 2988 3500 
L 3597 3500 
L 2284 0 
L 1503 0 
L 191 3500 
z
" transform="scale(0.015625)"/>
       <path id="DejaVuSans-2d" d="M 313 2009 
L 1997 2009 
L 1997 1497 
L 313 1497 
L 313 2009 
z
" transform="scale(0.015625)"/>
       <path id="DejaVuSans-6f" d="M 1959 3097 
Q 1497 3097 1228 2736 
Q 959 2375 959 1747 
Q 959 1119 1226 758 
Q 1494 397 1959 397 
Q 2419 397 2687 759 
Q 2956 1122 2956 1747 
Q 2956 2369 2687 2733 
Q 2419 3097 1959 3097 
z
M 1959 3584 
Q 2709 3584 3137 3096 
Q 3566 2609 3566 1747 
Q 3566 888 3137 398 
Q 2709 -91 1959 -91 
Q 1206 -91 779 398 
Q 353 888 353 1747 
Q 353 2609 779 3096 
Q 1206 3584 1959 3584 
z
" transform="scale(0.015625)"/>
       <path id="DejaVuSans-6e" d="M 3513 2113 
L 3513 0 
L 2938 0 
L 2938 2094 
Q 2938 2591 2744 2837 
Q 2550 3084 2163 3084 
Q 1697 3084 1428 2787 
Q 1159 2491 1159 1978 
L 1159 0 
L 581 0 
L 581 3500 
L 1159 3500 
L 1159 2956 
Q 1366 3272 1645 3428 
Q 1925 3584 2291 3584 
Q 2894 3584 3203 3211 
Q 3513 2838 3513 2113 
z
" transform="scale(0.015625)"/>
       <path id="DejaVuSans-29" d="M 513 4856 
L 1013 4856 
Q 1481 4119 1714 3412 
Q 1947 2706 1947 2009 
Q 1947 1309 1714 600 
Q 1481 -109 1013 -844 
L 513 -844 
Q 928 -128 1133 580 
Q 1338 1288 1338 2009 
Q 1338 2731 1133 3434 
Q 928 4138 513 4856 
z
" transform="scale(0.015625)"/>
      </defs>
      <use xlink:href="#DejaVuSans-46"/>
      <use xlink:href="#DejaVuSans-69" transform="translate(50.269531 0)"/>
      <use xlink:href="#DejaVuSans-74" transform="translate(78.052734 0)"/>
      <use xlink:href="#DejaVuSans-20" transform="translate(117.261719 0)"/>
      <use xlink:href="#DejaVuSans-79" transform="translate(149.048828 0)"/>
      <use xlink:href="#DejaVuSans-20" transform="translate(208.228516 0)"/>
      <use xlink:href="#DejaVuSans-3d" transform="translate(240.015625 0)"/>
      <use xlink:href="#DejaVuSans-20" transform="translate(323.804688 0)"/>
      <use xlink:href="#DejaVuSans-30" transform="translate(355.591797 0)"/>
      <use xlink:href="#DejaVuSans-2e" transform="translate(419.214844 0)"/>
      <use xlink:href="#DejaVuSans-33" transform="translate(451.001953 0)"/>
      <use xlink:href="#DejaVuSans-35" transform="translate(514.625 0)"/>
      <use xlink:href="#DejaVuSans-78" transform="translate(578.248047 0)"/>
      <use xlink:href="#DejaVuSans-20" transform="translate(637.427734 0)"/>
      <use xlink:href="#DejaVuSans-2b" transform="translate(669.214844 0)"/>
      <use xlink:href="#DejaVuSans-20" transform="translate(753.003906 0)"/>
      <use xlink:href="#DejaVuSans-31" transform="translate(784.791016 0)"/>
      <use xlink:href="#DejaVuSans-2e" transform="translate(848.414062 0)"/>
      <use xlink:href="#DejaVuSans-32" transform="translate(880.201172 0)"/>
      <use xlink:href="#DejaVuSans-31" transform="translate(943.824219 0)"/>
      <use xlink:href="#DejaVuSans-20" transform="translate(1007.447266 0)"/>
      <use xlink:href="#DejaVuSans-28" transform="translate(1039.234375 0)"/>
      <use xlink:href="#DejaVuSans-6c" transform="translate(1078.248047 0)"/>
      <use xlink:href="#DejaVuSans-65" transform="translate(1106.03125 0)"/>
      <use xlink:href="#DejaVuSans-61" transform="translate(1167.554688 0)"/>
      <use xlink:href="#DejaVuSans-76" transform="translate(1228.833984 0)"/>
      <use xlink:href="#DejaVuSans-65" transform="translate(1288.013672 0)"/>
      <use xlink:href="#DejaVuSans-2d" transform="translate(1349.537109 0)"/>
      <use xlink:href="#DejaVuSans-6f" transform="translate(1387.496094 0)"/>
      <use xlink:href="#DejaVuSans-6e" transform="translate(1448.677734 0)"/>
      <use xlink:href="#DejaVuSans-65" transform="translate(1512.056641 0)"/>
      <use xlink:href="#DejaVuSans-2d" transform="translate(1573.580078 0)"/>
      <use xlink:href="#DejaVuSans-6f" transform="translate(1611.539062 0)"/>
      <use xlink:href="#DejaVuSans-75" transform="translate(1672.720703 0)"/>
      <use xlink:href="#DejaVuSans-74" transform="translate(1736.099609 0)"/>
      <use xlink:href="#DejaVuSans-29" transform="translate(1775.308594 0)"/>
     </g>
    </g>
    <g id="line2d_15">
     <path d="M 73.55 60.797813 
L 91.55 60.797813 
L 109.55 60.797813 
" style="fill: none; stroke: #ff7f0e; stroke-width: 1.5; stroke-linecap: square"/>
    </g>
    <g id="text_14">
     <!-- Fit y = 0.34x + 1.44 (5-fold cross-validation) -->
     <g transform="translate(123.95 67.097813) scale(0.18 -0.18)">
      <defs>
       <path id="DejaVuSans-34" d="M 2419 4116 
L 825 1625 
L 2419 1625 
L 2419 4116 
z
M 2253 4666 
L 3047 4666 
L 3047 1625 
L 3713 1625 
L 3713 1100 
L 3047 1100 
L 3047 0 
L 2419 0 
L 2419 1100 
L 313 1100 
L 313 1709 
L 2253 4666 
z
" transform="scale(0.015625)"/>
       <path id="DejaVuSans-66" d="M 2375 4863 
L 2375 4384 
L 1825 4384 
Q 1516 4384 1395 4259 
Q 1275 4134 1275 3809 
L 1275 3500 
L 2222 3500 
L 2222 3053 
L 1275 3053 
L 1275 0 
L 697 0 
L 697 3053 
L 147 3053 
L 147 3500 
L 697 3500 
L 697 3744 
Q 697 4328 969 4595 
Q 1241 4863 1831 4863 
L 2375 4863 
z
" transform="scale(0.015625)"/>
       <path id="DejaVuSans-73" d="M 2834 3397 
L 2834 2853 
Q 2591 2978 2328 3040 
Q 2066 3103 1784 3103 
Q 1356 3103 1142 2972 
Q 928 2841 928 2578 
Q 928 2378 1081 2264 
Q 1234 2150 1697 2047 
L 1894 2003 
Q 2506 1872 2764 1633 
Q 3022 1394 3022 966 
Q 3022 478 2636 193 
Q 2250 -91 1575 -91 
Q 1294 -91 989 -36 
Q 684 19 347 128 
L 347 722 
Q 666 556 975 473 
Q 1284 391 1588 391 
Q 1994 391 2212 530 
Q 2431 669 2431 922 
Q 2431 1156 2273 1281 
Q 2116 1406 1581 1522 
L 1381 1569 
Q 847 1681 609 1914 
Q 372 2147 372 2553 
Q 372 3047 722 3315 
Q 1072 3584 1716 3584 
Q 2034 3584 2315 3537 
Q 2597 3491 2834 3397 
z
" transform="scale(0.015625)"/>
      </defs>
      <use xlink:href="#DejaVuSans-46"/>
      <use xlink:href="#DejaVuSans-69" transform="translate(50.269531 0)"/>
      <use xlink:href="#DejaVuSans-74" transform="translate(78.052734 0)"/>
      <use xlink:href="#DejaVuSans-20" transform="translate(117.261719 0)"/>
      <use xlink:href="#DejaVuSans-79" transform="translate(149.048828 0)"/>
      <use xlink:href="#DejaVuSans-20" transform="translate(208.228516 0)"/>
      <use xlink:href="#DejaVuSans-3d" transform="translate(240.015625 0)"/>
      <use xlink:href="#DejaVuSans-20" transform="translate(323.804688 0)"/>
      <use xlink:href="#DejaVuSans-30" transform="translate(355.591797 0)"/>
      <use xlink:href="#DejaVuSans-2e" transform="translate(419.214844 0)"/>
      <use xlink:href="#DejaVuSans-33" transform="translate(451.001953 0)"/>
      <use xlink:href="#DejaVuSans-34" transform="translate(514.625 0)"/>
      <use xlink:href="#DejaVuSans-78" transform="translate(578.248047 0)"/>
      <use xlink:href="#DejaVuSans-20" transform="translate(637.427734 0)"/>
      <use xlink:href="#DejaVuSans-2b" transform="translate(669.214844 0)"/>
      <use xlink:href="#DejaVuSans-20" transform="translate(753.003906 0)"/>
      <use xlink:href="#DejaVuSans-31" transform="translate(784.791016 0)"/>
      <use xlink:href="#DejaVuSans-2e" transform="translate(848.414062 0)"/>
      <use xlink:href="#DejaVuSans-34" transform="translate(880.201172 0)"/>
      <use xlink:href="#DejaVuSans-34" transform="translate(943.824219 0)"/>
      <use xlink:href="#DejaVuSans-20" transform="translate(1007.447266 0)"/>
      <use xlink:href="#DejaVuSans-28" transform="translate(1039.234375 0)"/>
      <use xlink:href="#DejaVuSans-35" transform="translate(1078.248047 0)"/>
      <use xlink:href="#DejaVuSans-2d" transform="translate(1141.871094 0)"/>
      <use xlink:href="#DejaVuSans-66" transform="translate(1177.955078 0)"/>
      <use xlink:href="#DejaVuSans-6f" transform="translate(1213.160156 0)"/>
      <use xlink:href="#DejaVuSans-6c" transform="translate(1274.341797 0)"/>
      <use xlink:href="#DejaVuSans-64" transform="translate(1302.125 0)"/>
      <use xlink:href="#DejaVuSans-20" transform="translate(1365.601562 0)"/>
      <use xlink:href="#DejaVuSans-63" transform="translate(1397.388672 0)"/>
      <use xlink:href="#DejaVuSans-72" transform="translate(1452.369141 0)"/>
      <use xlink:href="#DejaVuSans-6f" transform="translate(1491.232422 0)"/>
      <use xlink:href="#DejaVuSans-73" transform="translate(1552.414062 0)"/>
      <use xlink:href="#DejaVuSans-73" transform="translate(1604.513672 0)"/>
      <use xlink:href="#DejaVuSans-2d" transform="translate(1656.613281 0)"/>
      <use xlink:href="#DejaVuSans-76" transform="translate(1690.072266 0)"/>
      <use xlink:href="#DejaVuSans-61" transform="translate(1749.251953 0)"/>
      <use xlink:href="#DejaVuSans-6c" transform="translate(1810.53125 0)"/>
      <use xlink:href="#DejaVuSans-69" transform="translate(1838.314453 0)"/>
      <use xlink:href="#DejaVuSans-64" transform="translate(1866.097656 0)"/>
      <use xlink:href="#DejaVuSans-61" transform="translate(1929.574219 0)"/>
      <use xlink:href="#DejaVuSans-74" transform="translate(1990.853516 0)"/>
      <use xlink:href="#DejaVuSans-69" transform="translate(2030.0625 0)"/>
      <use xlink:href="#DejaVuSans-6f" transform="translate(2057.845703 0)"/>
      <use xlink:href="#DejaVuSans-6e" transform="translate(2119.027344 0)"/>
      <use xlink:href="#DejaVuSans-29" transform="translate(2182.40625 0)"/>
     </g>
    </g>
    <g id="line2d_16">
     <path d="M 73.55 87.218438 
L 91.55 87.218438 
L 109.55 87.218438 
" style="fill: none; stroke-dasharray: 11.1,4.8; stroke-dashoffset: 0; stroke: #ff0000; stroke-width: 3"/>
    </g>
    <g id="text_15">
     <!-- Ideal: y = x -->
     <g transform="translate(123.95 93.518438) scale(0.18 -0.18)">
      <defs>
       <path id="DejaVuSans-49" d="M 628 4666 
L 1259 4666 
L 1259 0 
L 628 0 
L 628 4666 
z
" transform="scale(0.015625)"/>
       <path id="DejaVuSans-3a" d="M 750 794 
L 1409 794 
L 1409 0 
L 750 0 
L 750 794 
z
M 750 3309 
L 1409 3309 
L 1409 2516 
L 750 2516 
L 750 3309 
z
" transform="scale(0.015625)"/>
      </defs>
      <use xlink:href="#DejaVuSans-49"/>
      <use xlink:href="#DejaVuSans-64" transform="translate(29.492188 0)"/>
      <use xlink:href="#DejaVuSans-65" transform="translate(92.96875 0)"/>
      <use xlink:href="#DejaVuSans-61" transform="translate(154.492188 0)"/>
      <use xlink:href="#DejaVuSans-6c" transform="translate(215.771484 0)"/>
      <use xlink:href="#DejaVuSans-3a" transform="translate(243.554688 0)"/>
      <use xlink:href="#DejaVuSans-20" transform="translate(277.246094 0)"/>
      <use xlink:href="#DejaVuSans-79" transform="translate(309.033203 0)"/>
      <use xlink:href="#DejaVuSans-20" transform="translate(368.212891 0)"/>
      <use xlink:href="#DejaVuSans-3d" transform="translate(400 0)"/>
      <use xlink:href="#DejaVuSans-20" transform="translate(483.789062 0)"/>
      <use xlink:href="#DejaVuSans-78" transform="translate(515.576172 0)"/>
     </g>
    </g>
   </g>
  </g>
 </g>
 <defs>
  <clipPath id="pc26019cb67">
   <rect x="57.35" y="10.8" width="651.85" height="512.44"/>
  </clipPath>
 </defs>
</svg>
